<svg xmlns="http://www.w3.org/2000/svg" viewBox="0 0 508.49591064453125 186" width="508.49591064453125" height="186"><defs></defs><g transform="translate(31.91304347826087 41.869565217391305) scale(2.0869565217391304)"><circle cx="24" cy="13.5" r="6.5" fill="#F0B840"></circle><path d="M3 33 C7 25 12 25 16 33 C20 41 28 41 32 33 C36 25 41 25 45 33" stroke="#1A2B40" stroke-width="4" stroke-linecap="round" fill="none"></path></g><path transform="translate(154.000, 85.000)" d="M26.53-40.39Q26.53-40.06 26.30-39.83Q26.07-39.60 25.74-39.60L25.74-39.60L11.55-39.60Q11.22-39.60 11.22-39.27L11.22-39.27L11.22-26.80Q11.22-26.47 11.55-26.47L11.55-26.47L19.93-26.47Q20.26-26.47 20.49-26.24Q20.72-26.00 20.72-25.67L20.72-25.67L20.72-20.59Q20.72-20.26 20.49-20.03Q20.26-19.80 19.93-19.80L19.93-19.80L11.55-19.80Q11.22-19.80 11.22-19.47L11.22-19.47L11.22-0.79Q11.22-0.46 10.99-0.23Q10.76 0 10.43 0L10.43 0L4.36 0Q4.03 0 3.80-0.23Q3.56-0.46 3.56-0.79L3.56-0.79L3.56-45.41Q3.56-45.74 3.80-45.97Q4.03-46.20 4.36-46.20L4.36-46.20L25.74-46.20Q26.07-46.20 26.30-45.97Q26.53-45.74 26.53-45.41L26.53-45.41L26.53-40.39ZM48.82 0Q48.03 0 47.96-0.73L47.96-0.73L46.71-7.66Q46.71-7.99 46.31-7.99L46.31-7.99L36.68-7.99Q36.28-7.99 36.28-7.66L36.28-7.66L35.03-0.73Q34.96 0 34.17 0L34.17 0L28.16 0Q27.24 0 27.44-0.86L27.44-0.86L37.21-45.47Q37.34-46.20 38.06-46.20L38.06-46.20L45.06-46.20Q45.79-46.20 45.92-45.47L45.92-45.47L55.69-0.86L55.69-0.59Q55.69 0 54.96 0L54.96 0L48.82 0ZM37.47-14.32Q37.40-13.99 37.80-13.99L37.80-13.99L45.13-13.99Q45.52-13.99 45.46-14.32L45.46-14.32L41.63-35.18Q41.56-35.38 41.43-35.38Q41.30-35.38 41.23-35.18L41.23-35.18L37.47-14.32ZM82.40-45.67Q82.73-46.20 83.39-46.20L83.39-46.20L89.46-46.20Q89.79-46.20 90.02-45.97Q90.25-45.74 90.25-45.41L90.25-45.41L90.25-0.79Q90.25-0.46 90.02-0.23Q89.79 0 89.46 0L89.46 0L83.39 0Q83.06 0 82.83-0.23Q82.60-0.46 82.60-0.79L82.60-0.79L82.60-31.94Q82.60-32.21 82.46-32.21Q82.33-32.21 82.20-32.01L82.20-32.01L76.46-21.58Q76.13-21.05 75.86-21.05L75.86-21.05Q75.60-21.05 75.27-21.58L75.27-21.58L69.53-32.01Q69.40-32.21 69.26-32.21Q69.13-32.21 69.13-31.94L69.13-31.94L69.13-0.79Q69.13-0.46 68.90-0.23Q68.67 0 68.34 0L68.34 0L62.27 0Q61.94 0 61.71-0.23Q61.48-0.46 61.48-0.79L61.48-0.79L61.48-45.41Q61.48-45.74 61.71-45.97Q61.94-46.20 62.27-46.20L62.27-46.20L68.34-46.20Q69-46.20 69.33-45.67L69.33-45.67L75.73-34.39Q75.93-34.12 76.13-34.39L76.13-34.39L82.40-45.67ZM99.47 0Q99.14 0 98.91-0.23Q98.68-0.46 98.68-0.79L98.68-0.79L98.68-45.41Q98.68-45.74 98.91-45.97Q99.14-46.20 99.47-46.20L99.47-46.20L105.55-46.20Q105.88-46.20 106.11-45.97Q106.34-45.74 106.34-45.41L106.34-45.41L106.34-0.79Q106.34-0.46 106.11-0.23Q105.88 0 105.55 0L105.55 0L99.47 0ZM115.76 0Q115.43 0 115.20-0.23Q114.97-0.46 114.97-0.79L114.97-0.79L114.97-45.41Q114.97-45.74 115.20-45.97Q115.43-46.20 115.76-46.20L115.76-46.20L121.83-46.20Q122.16-46.20 122.39-45.97Q122.62-45.74 122.62-45.41L122.62-45.41L122.62-6.93Q122.62-6.60 122.95-6.60L122.95-6.60L137.21-6.60Q137.54-6.60 137.77-6.37Q138-6.14 138-5.81L138-5.81L138-0.79Q138-0.46 137.77-0.23Q137.54 0 137.21 0L137.21 0L115.76 0ZM150.26-0.07Q149.93-0.07 149.70-0.30Q149.47-0.53 149.47-0.86L149.47-0.86L149.47-18.88L149.40-19.27L140.23-45.28Q140.16-45.41 140.16-45.61L140.16-45.61Q140.16-46.20 140.89-46.20L140.89-46.20L147.22-46.20Q147.95-46.20 148.15-45.54L148.15-45.54L153.10-28.58Q153.16-28.38 153.29-28.38Q153.43-28.38 153.49-28.58L153.49-28.58L158.44-45.54Q158.64-46.20 159.37-46.20L159.37-46.20L165.70-46.20Q166.10-46.20 166.30-45.97Q166.49-45.74 166.36-45.28L166.36-45.28L157.19-19.27L157.12-18.88L157.12-0.86Q157.12-0.53 156.89-0.30Q156.66-0.07 156.33-0.07L156.33-0.07L150.26-0.07Z" fill="#1A2B40"/><path transform="translate(154.000, 143.000)" d="M27.65-37.62Q27.65-37.29 27.42-37.06Q27.19-36.83 26.86-36.83L26.86-36.83L13.60-36.83Q13.27-36.83 13.27-36.50L13.27-36.50L13.27-28.18Q13.27-27.85 13.60-27.85L13.60-27.85L20.86-27.85Q21.19-27.85 21.42-27.62Q21.65-27.39 21.65-27.06L21.65-27.06L21.65-19.21Q21.65-18.88 21.42-18.64Q21.19-18.41 20.86-18.41L20.86-18.41L13.60-18.41Q13.27-18.41 13.27-18.08L13.27-18.08L13.27-0.79Q13.27-0.46 13.04-0.23Q12.80 0 12.47 0L12.47 0L3.10 0Q2.77 0 2.54-0.23Q2.31-0.46 2.31-0.79L2.31-0.79L2.31-45.41Q2.31-45.74 2.54-45.97Q2.77-46.20 3.10-46.20L3.10-46.20L26.86-46.20Q27.19-46.20 27.42-45.97Q27.65-45.74 27.65-45.41L27.65-45.41L27.65-37.62ZM49.51 0Q48.78 0 48.59-0.66L48.59-0.66L44.10-18.15Q44.03-18.41 43.77-18.41L43.77-18.41L42.78-18.41Q42.45-18.41 42.45-18.08L42.45-18.08L42.45-0.79Q42.45-0.46 42.22-0.23Q41.99 0 41.66 0L41.66 0L32.28 0Q31.95 0 31.72-0.23Q31.49-0.46 31.49-0.79L31.49-0.79L31.49-45.41Q31.49-45.74 31.72-45.97Q31.95-46.20 32.28-46.20L32.28-46.20L46.47-46.20Q50.30-46.20 53.27-44.39Q56.24-42.57 57.86-39.30Q59.48-36.04 59.48-31.88L59.48-31.88Q59.48-28.18 58.12-25.25Q56.77-22.31 54.33-20.53L54.33-20.53Q54.20-20.46 54.13-20.36Q54.06-20.26 54.13-20.13L54.13-20.13L59.81-0.92L59.87-0.66Q59.87 0 59.15 0L59.15 0L49.51 0ZM42.78-36.83Q42.45-36.83 42.45-36.50L42.45-36.50L42.45-27.13Q42.45-26.80 42.78-26.80L42.78-26.80L44.63-26.80Q46.41-26.80 47.46-28.12Q48.52-29.44 48.52-31.75L48.52-31.75Q48.52-34.19 47.46-35.51Q46.41-36.83 44.63-36.83L44.63-36.83L42.78-36.83ZM89.58-37.62Q89.58-37.29 89.35-37.06Q89.12-36.83 88.79-36.83L88.79-36.83L75.52-36.83Q75.19-36.83 75.19-36.50L75.19-36.50L75.19-28.18Q75.19-27.85 75.52-27.85L75.52-27.85L82.78-27.85Q83.11-27.85 83.34-27.62Q83.58-27.39 83.58-27.06L83.58-27.06L83.58-19.21Q83.58-18.88 83.34-18.64Q83.11-18.41 82.78-18.41L82.78-18.41L75.52-18.41Q75.19-18.41 75.19-18.08L75.19-18.08L75.19-9.70Q75.19-9.37 75.52-9.37L75.52-9.37L88.79-9.37Q89.12-9.37 89.35-9.14Q89.58-8.91 89.58-8.58L89.58-8.58L89.58-0.79Q89.58-0.46 89.35-0.23Q89.12 0 88.79 0L88.79 0L65.03 0Q64.70 0 64.47-0.23Q64.24-0.46 64.24-0.79L64.24-0.79L64.24-45.41Q64.24-45.74 64.47-45.97Q64.70-46.20 65.03-46.20L65.03-46.20L88.79-46.20Q89.12-46.20 89.35-45.97Q89.58-45.74 89.58-45.41L89.58-45.41L89.58-37.62ZM107.41-46.73Q111.50-46.73 114.61-44.95Q117.71-43.16 119.42-39.96Q121.14-36.76 121.14-32.54L121.14-32.54L121.14-13.66Q121.14-8.98 119.03-5.54Q116.92-2.11 113.15-0.59L113.15-0.59Q112.89-0.40 112.89-0.20L112.89-0.20L112.89 5.28Q112.89 5.61 112.66 5.84Q112.43 6.07 112.10 6.07L112.10 6.07L102.73 6.07Q102.40 6.07 102.17 5.84Q101.93 5.61 101.93 5.28L101.93 5.28L101.93-0.20Q101.93-0.40 101.67-0.59L101.67-0.59Q97.97-2.11 95.90-5.54Q93.82-8.98 93.82-13.66L93.82-13.66L93.82-32.54Q93.82-36.76 95.50-39.96Q97.18-43.16 100.28-44.95Q103.39-46.73 107.41-46.73L107.41-46.73ZM104.77-33.73L104.77-12.47Q104.77-10.89 105.50-9.87Q106.22-8.84 107.41-8.84L107.41-8.84Q108.67-8.84 109.43-9.87Q110.18-10.89 110.18-12.47L110.18-12.47L110.18-33.73Q110.18-35.31 109.43-36.33Q108.67-37.36 107.41-37.36L107.41-37.36Q106.22-37.36 105.50-36.33Q104.77-35.31 104.77-33.73L104.77-33.73ZM139.70 0.53Q135.60 0.53 132.50-1.22Q129.40-2.97 127.68-6.14Q125.97-9.31 125.97-13.46L125.97-13.46L125.97-45.41Q125.97-45.74 126.20-45.97Q126.43-46.20 126.76-46.20L126.76-46.20L136.13-46.20Q136.46-46.20 136.69-45.97Q136.92-45.74 136.92-45.41L136.92-45.41L136.92-12.41Q136.92-10.82 137.68-9.83Q138.44-8.84 139.70-8.84L139.70-8.84Q140.95-8.84 141.71-9.83Q142.47-10.82 142.47-12.41L142.47-12.41L142.47-45.41Q142.47-45.74 142.70-45.97Q142.93-46.20 143.26-46.20L143.26-46.20L152.63-46.20Q152.96-46.20 153.19-45.97Q153.42-45.74 153.42-45.41L153.42-45.41L153.42-13.46Q153.42-9.31 151.71-6.14Q149.99-2.97 146.89-1.22Q143.79 0.53 139.70 0.53L139.70 0.53ZM183.99-37.62Q183.99-37.29 183.76-37.06Q183.53-36.83 183.20-36.83L183.20-36.83L169.93-36.83Q169.60-36.83 169.60-36.50L169.60-36.50L169.60-28.18Q169.60-27.85 169.93-27.85L169.93-27.85L177.19-27.85Q177.52-27.85 177.75-27.62Q177.99-27.39 177.99-27.06L177.99-27.06L177.99-19.21Q177.99-18.88 177.75-18.64Q177.52-18.41 177.19-18.41L177.19-18.41L169.93-18.41Q169.60-18.41 169.60-18.08L169.60-18.08L169.60-9.70Q169.60-9.37 169.93-9.37L169.93-9.37L183.20-9.37Q183.53-9.37 183.76-9.14Q183.99-8.91 183.99-8.58L183.99-8.58L183.99-0.79Q183.99-0.46 183.76-0.23Q183.53 0 183.20 0L183.20 0L159.44 0Q159.11 0 158.88-0.23Q158.65-0.46 158.65-0.79L158.65-0.79L158.65-45.41Q158.65-45.74 158.88-45.97Q159.11-46.20 159.44-46.20L159.44-46.20L183.20-46.20Q183.53-46.20 183.76-45.97Q183.99-45.74 183.99-45.41L183.99-45.41L183.99-37.62ZM207.76-45.41Q207.76-45.74 207.99-45.97Q208.22-46.20 208.55-46.20L208.55-46.20L217.79-46.20Q218.12-46.20 218.35-45.97Q218.59-45.74 218.59-45.41L218.59-45.41L218.59-0.79Q218.59-0.46 218.35-0.23Q218.12 0 217.79 0L217.79 0L207.30 0Q206.57 0 206.38-0.66L206.38-0.66L199.84-23.63Q199.78-23.83 199.61-23.86Q199.45-23.89 199.45-23.63L199.45-23.63L199.58-0.79Q199.58-0.46 199.35-0.23Q199.12 0 198.79 0L198.79 0L189.55 0Q189.22 0 188.98-0.23Q188.75-0.46 188.75-0.79L188.75-0.79L188.75-45.41Q188.75-45.74 188.98-45.97Q189.22-46.20 189.55-46.20L189.55-46.20L199.91-46.20Q200.63-46.20 200.83-45.54L200.83-45.54L207.43-22.44Q207.50-22.24 207.66-22.24Q207.83-22.24 207.83-22.51L207.83-22.51L207.76-45.41ZM237.47 0.53Q231.20 0.53 227.44-3.17Q223.68-6.86 223.68-13.00L223.68-13.00L223.68-33.26Q223.68-39.47 227.44-43.10Q231.20-46.73 237.47-46.73L237.47-46.73Q243.74-46.73 247.54-43.10Q251.33-39.47 251.33-33.26L251.33-33.26L251.33-32.67Q251.33-32.34 251.10-32.11Q250.87-31.88 250.54-31.88L250.54-31.88L241.17-31.48Q240.38-31.48 240.38-32.27L240.38-32.27L240.38-34.06Q240.38-35.57 239.58-36.47Q238.79-37.36 237.47-37.36L237.47-37.36Q236.22-37.36 235.43-36.47Q234.63-35.57 234.63-34.06L234.63-34.06L234.63-12.08Q234.63-10.63 235.43-9.74Q236.22-8.84 237.47-8.84L237.47-8.84Q238.79-8.84 239.58-9.74Q240.38-10.63 240.38-12.08L240.38-12.08L240.38-13.99Q240.38-14.32 240.61-14.55Q240.84-14.78 241.17-14.78L241.17-14.78L250.54-14.39Q250.87-14.39 251.10-14.16Q251.33-13.93 251.33-13.60L251.33-13.60L251.33-13.00Q251.33-6.86 247.54-3.17Q243.74 0.53 237.47 0.53L237.47 0.53ZM257.02 0Q256.69 0 256.46-0.23Q256.23-0.46 256.23-0.79L256.23-0.79L256.23-45.41Q256.23-45.74 256.46-45.97Q256.69-46.20 257.02-46.20L257.02-46.20L266.39-46.20Q266.72-46.20 266.95-45.97Q267.18-45.74 267.18-45.41L267.18-45.41L267.18-0.79Q267.18-0.46 266.95-0.23Q266.72 0 266.39 0L266.39 0L257.02 0ZM298.08-37.62Q298.08-37.29 297.85-37.06Q297.62-36.83 297.29-36.83L297.29-36.83L284.02-36.83Q283.69-36.83 283.69-36.50L283.69-36.50L283.69-28.18Q283.69-27.85 284.02-27.85L284.02-27.85L291.28-27.85Q291.61-27.85 291.84-27.62Q292.07-27.39 292.07-27.06L292.07-27.06L292.07-19.21Q292.07-18.88 291.84-18.64Q291.61-18.41 291.28-18.41L291.28-18.41L284.02-18.41Q283.69-18.41 283.69-18.08L283.69-18.08L283.69-9.70Q283.69-9.37 284.02-9.37L284.02-9.37L297.29-9.37Q297.62-9.37 297.85-9.14Q298.08-8.91 298.08-8.58L298.08-8.58L298.08-0.79Q298.08-0.46 297.85-0.23Q297.62 0 297.29 0L297.29 0L273.53 0Q273.20 0 272.97-0.23Q272.74-0.46 272.74-0.79L272.74-0.79L272.74-45.41Q272.74-45.74 272.97-45.97Q273.20-46.20 273.53-46.20L273.53-46.20L297.29-46.20Q297.62-46.20 297.85-45.97Q298.08-45.74 298.08-45.41L298.08-45.41L298.08-37.62ZM315.71 0.53Q311.69 0.53 308.65-1.02Q305.61-2.57 303.93-5.38Q302.25-8.18 302.25-11.75L302.25-11.75L302.25-13.79Q302.25-14.12 302.48-14.36Q302.71-14.59 303.04-14.59L303.04-14.59L312.28-14.59Q312.61-14.59 312.84-14.36Q313.07-14.12 313.07-13.79L313.07-13.79L313.07-12.28Q313.07-10.69 313.83-9.77Q314.59-8.84 315.78-8.84L315.78-8.84Q316.97-8.84 317.72-9.74Q318.48-10.63 318.48-12.01L318.48-12.01Q318.48-13.53 317.30-14.75Q316.11-15.97 312.54-18.55L312.54-18.55Q309.24-20.92 307.13-22.80Q305.02-24.68 303.50-27.49Q301.98-30.29 301.98-33.99L301.98-33.99Q301.98-37.75 303.67-40.66Q305.35-43.56 308.42-45.14Q311.49-46.73 315.45-46.73L315.45-46.73Q319.47-46.73 322.54-45.11Q325.61-43.49 327.29-40.56Q328.98-37.62 328.98-33.79L328.98-33.79L328.98-32.21Q328.98-31.88 328.75-31.65Q328.52-31.42 328.19-31.42L328.19-31.42L319.01-31.42Q318.68-31.42 318.45-31.65Q318.22-31.88 318.22-32.21L318.22-32.21L318.22-34.06Q318.22-35.51 317.43-36.43Q316.64-37.36 315.45-37.36L315.45-37.36Q314.26-37.36 313.53-36.43Q312.81-35.51 312.81-33.99L312.81-33.99Q312.81-32.34 313.93-31.02Q315.05-29.70 318.48-27.19L318.48-27.19Q322.64-24.09 324.75-22.18Q326.87-20.26 328.05-17.92Q329.24-15.58 329.24-12.41L329.24-12.41Q329.24-6.47 325.51-2.97Q321.78 0.53 315.71 0.53L315.71 0.53Z" fill="#1A2B40"/></svg>