<svg xmlns="http://www.w3.org/2000/svg" viewBox="0 0 379.35992431640625 321" width="379.35992431640625" height="321"><defs></defs><g transform="translate(141.67996215820312 32) scale(2)"><circle cx="24" cy="13.5" r="6.5" fill="#1A2B40"></circle><path d="M3 33 C7 25 12 25 16 33 C20 41 28 41 32 33 C36 25 41 25 45 33" stroke="#1A2B40" stroke-width="4" stroke-linecap="round" fill="none"></path></g><path transform="translate(110.570, 162.000)" d="M24.12-36.72Q24.12-36.42 23.91-36.21Q23.70-36 23.40-36L23.40-36L10.50-36Q10.20-36 10.20-35.70L10.20-35.70L10.20-24.36Q10.20-24.06 10.50-24.06L10.50-24.06L18.12-24.06Q18.42-24.06 18.63-23.85Q18.84-23.64 18.84-23.34L18.84-23.34L18.84-18.72Q18.84-18.42 18.63-18.21Q18.42-18 18.12-18L18.12-18L10.50-18Q10.20-18 10.20-17.70L10.20-17.70L10.20-0.72Q10.20-0.42 9.99-0.21Q9.78 0 9.48 0L9.48 0L3.96 0Q3.66 0 3.45-0.21Q3.24-0.42 3.24-0.72L3.24-0.72L3.24-41.28Q3.24-41.58 3.45-41.79Q3.66-42 3.96-42L3.96-42L23.40-42Q23.70-42 23.91-41.79Q24.12-41.58 24.12-41.28L24.12-41.28L24.12-36.72ZM45.02 0Q44.30 0 44.24-0.66L44.24-0.66L43.10-6.96Q43.10-7.26 42.74-7.26L42.74-7.26L33.98-7.26Q33.62-7.26 33.62-6.96L33.62-6.96L32.48-0.66Q32.42 0 31.70 0L31.70 0L26.24 0Q25.40 0 25.58-0.78L25.58-0.78L34.46-41.34Q34.58-42 35.24-42L35.24-42L41.60-42Q42.26-42 42.38-41.34L42.38-41.34L51.26-0.78L51.26-0.54Q51.26 0 50.60 0L50.60 0L45.02 0ZM34.70-13.02Q34.64-12.72 35-12.72L35-12.72L41.66-12.72Q42.02-12.72 41.96-13.02L41.96-13.02L38.48-31.98Q38.42-32.16 38.30-32.16Q38.18-32.16 38.12-31.98L38.12-31.98L34.70-13.02ZM76.18-41.52Q76.48-42 77.08-42L77.08-42L82.60-42Q82.90-42 83.11-41.79Q83.32-41.58 83.32-41.28L83.32-41.28L83.32-0.72Q83.32-0.42 83.11-0.21Q82.90 0 82.60 0L82.60 0L77.08 0Q76.78 0 76.57-0.21Q76.36-0.42 76.36-0.72L76.36-0.72L76.36-29.04Q76.36-29.28 76.24-29.28Q76.12-29.28 76-29.10L76-29.10L70.78-19.62Q70.48-19.14 70.24-19.14L70.24-19.14Q70-19.14 69.70-19.62L69.70-19.62L64.48-29.10Q64.36-29.28 64.24-29.28Q64.12-29.28 64.12-29.04L64.12-29.04L64.12-0.72Q64.12-0.42 63.91-0.21Q63.70 0 63.40 0L63.40 0L57.88 0Q57.58 0 57.37-0.21Q57.16-0.42 57.16-0.72L57.16-0.72L57.16-41.28Q57.16-41.58 57.37-41.79Q57.58-42 57.88-42L57.88-42L63.40-42Q64.00-42 64.30-41.52L64.30-41.52L70.12-31.26Q70.30-31.02 70.48-31.26L70.48-31.26L76.18-41.52ZM92.34 0Q92.04 0 91.83-0.21Q91.62-0.42 91.62-0.72L91.62-0.72L91.62-41.28Q91.62-41.58 91.83-41.79Q92.04-42 92.34-42L92.34-42L97.86-42Q98.16-42 98.37-41.79Q98.58-41.58 98.58-41.28L98.58-41.28L98.58-0.72Q98.58-0.42 98.37-0.21Q98.16 0 97.86 0L97.86 0L92.34 0ZM107.78 0Q107.48 0 107.27-0.21Q107.06-0.42 107.06-0.72L107.06-0.72L107.06-41.28Q107.06-41.58 107.27-41.79Q107.48-42 107.78-42L107.78-42L113.30-42Q113.60-42 113.81-41.79Q114.02-41.58 114.02-41.28L114.02-41.28L114.02-6.30Q114.02-6 114.32-6L114.32-6L127.28-6Q127.58-6 127.79-5.79Q128-5.58 128-5.28L128-5.28L128-0.72Q128-0.42 127.79-0.21Q127.58 0 127.28 0L127.28 0L107.78 0ZM139.78-0.06Q139.48-0.06 139.27-0.27Q139.06-0.48 139.06-0.78L139.06-0.78L139.06-17.16L139-17.52L130.66-41.16Q130.60-41.28 130.60-41.46L130.60-41.46Q130.60-42 131.26-42L131.26-42L137.02-42Q137.68-42 137.86-41.40L137.86-41.40L142.36-25.98Q142.42-25.80 142.54-25.80Q142.66-25.80 142.72-25.98L142.72-25.98L147.22-41.40Q147.40-42 148.06-42L148.06-42L153.82-42Q154.18-42 154.36-41.79Q154.54-41.58 154.42-41.16L154.42-41.16L146.08-17.52L146.02-17.16L146.02-0.78Q146.02-0.48 145.81-0.27Q145.60-0.06 145.30-0.06L145.30-0.06L139.78-0.06Z" fill="#1A2B40"/><path transform="translate(35.750, 216.000)" d="M25.14-34.20Q25.14-33.90 24.93-33.69Q24.72-33.48 24.42-33.48L24.42-33.48L12.36-33.48Q12.06-33.48 12.06-33.18L12.06-33.18L12.06-25.62Q12.06-25.32 12.36-25.32L12.36-25.32L18.96-25.32Q19.26-25.32 19.47-25.11Q19.68-24.90 19.68-24.60L19.68-24.60L19.68-17.46Q19.68-17.16 19.47-16.95Q19.26-16.74 18.96-16.74L18.96-16.74L12.36-16.74Q12.06-16.74 12.06-16.44L12.06-16.44L12.06-0.72Q12.06-0.42 11.85-0.21Q11.64 0 11.34 0L11.34 0L2.82 0Q2.52 0 2.31-0.21Q2.10-0.42 2.10-0.72L2.10-0.72L2.10-41.28Q2.10-41.58 2.31-41.79Q2.52-42 2.82-42L2.82-42L24.42-42Q24.72-42 24.93-41.79Q25.14-41.58 25.14-41.28L25.14-41.28L25.14-34.20ZM45.60 0Q44.94 0 44.76-0.60L44.76-0.60L40.68-16.50Q40.62-16.74 40.38-16.74L40.38-16.74L39.48-16.74Q39.18-16.74 39.18-16.44L39.18-16.44L39.18-0.72Q39.18-0.42 38.97-0.21Q38.76 0 38.46 0L38.46 0L29.94 0Q29.64 0 29.43-0.21Q29.22-0.42 29.22-0.72L29.22-0.72L29.22-41.28Q29.22-41.58 29.43-41.79Q29.64-42 29.94-42L29.94-42L42.84-42Q46.32-42 49.02-40.35Q51.72-38.70 53.19-35.73Q54.66-32.76 54.66-28.98L54.66-28.98Q54.66-25.62 53.43-22.95Q52.20-20.28 49.98-18.66L49.98-18.66Q49.86-18.60 49.80-18.51Q49.74-18.42 49.80-18.30L49.80-18.30L54.96-0.84L55.02-0.60Q55.02 0 54.36 0L54.36 0L45.60 0ZM39.48-33.48Q39.18-33.48 39.18-33.18L39.18-33.18L39.18-24.66Q39.18-24.36 39.48-24.36L39.48-24.36L41.16-24.36Q42.78-24.36 43.74-25.56Q44.70-26.76 44.70-28.86L44.70-28.86Q44.70-31.08 43.74-32.28Q42.78-33.48 41.16-33.48L41.16-33.48L39.48-33.48ZM82.62-34.20Q82.62-33.90 82.41-33.69Q82.20-33.48 81.90-33.48L81.90-33.48L69.84-33.48Q69.54-33.48 69.54-33.18L69.54-33.18L69.54-25.62Q69.54-25.32 69.84-25.32L69.84-25.32L76.44-25.32Q76.74-25.32 76.95-25.11Q77.16-24.90 77.16-24.60L77.16-24.60L77.16-17.46Q77.16-17.16 76.95-16.95Q76.74-16.74 76.44-16.74L76.44-16.74L69.84-16.74Q69.54-16.74 69.54-16.44L69.54-16.44L69.54-8.82Q69.54-8.52 69.84-8.52L69.84-8.52L81.90-8.52Q82.20-8.52 82.41-8.31Q82.62-8.10 82.62-7.80L82.62-7.80L82.62-0.72Q82.62-0.42 82.41-0.21Q82.20 0 81.90 0L81.90 0L60.30 0Q60 0 59.79-0.21Q59.58-0.42 59.58-0.72L59.58-0.72L59.58-41.28Q59.58-41.58 59.79-41.79Q60-42 60.30-42L60.30-42L81.90-42Q82.20-42 82.41-41.79Q82.62-41.58 82.62-41.28L82.62-41.28L82.62-34.20ZM99.42-42.48Q103.14-42.48 105.96-40.86Q108.78-39.24 110.34-36.33Q111.90-33.42 111.90-29.58L111.90-29.58L111.90-12.42Q111.90-8.16 109.98-5.04Q108.06-1.92 104.64-0.54L104.64-0.54Q104.40-0.36 104.40-0.18L104.40-0.18L104.40 4.80Q104.40 5.10 104.19 5.31Q103.98 5.52 103.68 5.52L103.68 5.52L95.16 5.52Q94.86 5.52 94.65 5.31Q94.44 5.10 94.44 4.80L94.44 4.80L94.44-0.18Q94.44-0.36 94.20-0.54L94.20-0.54Q90.84-1.92 88.95-5.04Q87.06-8.16 87.06-12.42L87.06-12.42L87.06-29.58Q87.06-33.42 88.59-36.33Q90.12-39.24 92.94-40.86Q95.76-42.48 99.42-42.48L99.42-42.48ZM97.02-30.66L97.02-11.34Q97.02-9.90 97.68-8.97Q98.34-8.04 99.42-8.04L99.42-8.04Q100.56-8.04 101.25-8.97Q101.94-9.90 101.94-11.34L101.94-11.34L101.94-30.66Q101.94-32.10 101.25-33.03Q100.56-33.96 99.42-33.96L99.42-33.96Q98.34-33.96 97.68-33.03Q97.02-32.10 97.02-30.66L97.02-30.66ZM129.36 0.48Q125.64 0.48 122.82-1.11Q120-2.70 118.44-5.58Q116.88-8.46 116.88-12.24L116.88-12.24L116.88-41.28Q116.88-41.58 117.09-41.79Q117.30-42 117.60-42L117.60-42L126.12-42Q126.42-42 126.63-41.79Q126.84-41.58 126.84-41.28L126.84-41.28L126.84-11.28Q126.84-9.84 127.53-8.94Q128.22-8.04 129.36-8.04L129.36-8.04Q130.50-8.04 131.19-8.94Q131.88-9.84 131.88-11.28L131.88-11.28L131.88-41.28Q131.88-41.58 132.09-41.79Q132.30-42 132.60-42L132.60-42L141.12-42Q141.42-42 141.63-41.79Q141.84-41.58 141.84-41.28L141.84-41.28L141.84-12.24Q141.84-8.46 140.28-5.58Q138.72-2.70 135.90-1.11Q133.08 0.48 129.36 0.48L129.36 0.48ZM170.22-34.20Q170.22-33.90 170.01-33.69Q169.80-33.48 169.50-33.48L169.50-33.48L157.44-33.48Q157.14-33.48 157.14-33.18L157.14-33.18L157.14-25.62Q157.14-25.32 157.44-25.32L157.44-25.32L164.04-25.32Q164.34-25.32 164.55-25.11Q164.76-24.90 164.76-24.60L164.76-24.60L164.76-17.46Q164.76-17.16 164.55-16.95Q164.34-16.74 164.04-16.74L164.04-16.74L157.44-16.74Q157.14-16.74 157.14-16.44L157.14-16.44L157.14-8.82Q157.14-8.52 157.44-8.52L157.44-8.52L169.50-8.52Q169.80-8.52 170.01-8.31Q170.22-8.10 170.22-7.80L170.22-7.80L170.22-0.72Q170.22-0.42 170.01-0.21Q169.80 0 169.50 0L169.50 0L147.90 0Q147.60 0 147.39-0.21Q147.18-0.42 147.18-0.72L147.18-0.72L147.18-41.28Q147.18-41.58 147.39-41.79Q147.60-42 147.90-42L147.90-42L169.50-42Q169.80-42 170.01-41.79Q170.22-41.58 170.22-41.28L170.22-41.28L170.22-34.20ZM192.42-41.28Q192.42-41.58 192.63-41.79Q192.84-42 193.14-42L193.14-42L201.54-42Q201.84-42 202.05-41.79Q202.26-41.58 202.26-41.28L202.26-41.28L202.26-0.72Q202.26-0.42 202.05-0.21Q201.84 0 201.54 0L201.54 0L192 0Q191.34 0 191.16-0.60L191.16-0.60L185.22-21.48Q185.16-21.66 185.01-21.69Q184.86-21.72 184.86-21.48L184.86-21.48L184.98-0.72Q184.98-0.42 184.77-0.21Q184.56 0 184.26 0L184.26 0L175.86 0Q175.56 0 175.35-0.21Q175.14-0.42 175.14-0.72L175.14-0.72L175.14-41.28Q175.14-41.58 175.35-41.79Q175.56-42 175.86-42L175.86-42L185.28-42Q185.94-42 186.12-41.40L186.12-41.40L192.12-20.40Q192.18-20.22 192.33-20.22Q192.48-20.22 192.48-20.46L192.48-20.46L192.42-41.28ZM220.02 0.48Q214.32 0.48 210.90-2.88Q207.48-6.24 207.48-11.82L207.48-11.82L207.48-30.24Q207.48-35.88 210.90-39.18Q214.32-42.48 220.02-42.48L220.02-42.48Q225.72-42.48 229.17-39.18Q232.62-35.88 232.62-30.24L232.62-30.24L232.62-29.70Q232.62-29.40 232.41-29.19Q232.20-28.98 231.90-28.98L231.90-28.98L223.38-28.62Q222.66-28.62 222.66-29.34L222.66-29.34L222.66-30.96Q222.66-32.34 221.94-33.15Q221.22-33.96 220.02-33.96L220.02-33.96Q218.88-33.96 218.16-33.15Q217.44-32.34 217.44-30.96L217.44-30.96L217.44-10.98Q217.44-9.66 218.16-8.85Q218.88-8.04 220.02-8.04L220.02-8.04Q221.22-8.04 221.94-8.85Q222.66-9.66 222.66-10.98L222.66-10.98L222.66-12.72Q222.66-13.02 222.87-13.23Q223.08-13.44 223.38-13.44L223.38-13.44L231.90-13.08Q232.20-13.08 232.41-12.87Q232.62-12.66 232.62-12.36L232.62-12.36L232.62-11.82Q232.62-6.24 229.17-2.88Q225.72 0.48 220.02 0.48L220.02 0.48ZM238.38 0Q238.08 0 237.87-0.21Q237.66-0.42 237.66-0.72L237.66-0.72L237.66-41.28Q237.66-41.58 237.87-41.79Q238.08-42 238.38-42L238.38-42L246.90-42Q247.20-42 247.41-41.79Q247.62-41.58 247.62-41.28L247.62-41.28L247.62-0.72Q247.62-0.42 247.41-0.21Q247.20 0 246.90 0L246.90 0L238.38 0ZM276.30-34.20Q276.30-33.90 276.09-33.69Q275.88-33.48 275.58-33.48L275.58-33.48L263.52-33.48Q263.22-33.48 263.22-33.18L263.22-33.18L263.22-25.62Q263.22-25.32 263.52-25.32L263.52-25.32L270.12-25.32Q270.42-25.32 270.63-25.11Q270.84-24.90 270.84-24.60L270.84-24.60L270.84-17.46Q270.84-17.16 270.63-16.95Q270.42-16.74 270.12-16.74L270.12-16.74L263.52-16.74Q263.22-16.74 263.22-16.44L263.22-16.44L263.22-8.82Q263.22-8.52 263.52-8.52L263.52-8.52L275.58-8.52Q275.88-8.52 276.09-8.31Q276.30-8.10 276.30-7.80L276.30-7.80L276.30-0.72Q276.30-0.42 276.09-0.21Q275.88 0 275.58 0L275.58 0L253.98 0Q253.68 0 253.47-0.21Q253.26-0.42 253.26-0.72L253.26-0.72L253.26-41.28Q253.26-41.58 253.47-41.79Q253.68-42 253.98-42L253.98-42L275.58-42Q275.88-42 276.09-41.79Q276.30-41.58 276.30-41.28L276.30-41.28L276.30-34.20ZM292.92 0.48Q289.26 0.48 286.50-0.93Q283.74-2.34 282.21-4.89Q280.68-7.44 280.68-10.68L280.68-10.68L280.68-12.54Q280.68-12.84 280.89-13.05Q281.10-13.26 281.40-13.26L281.40-13.26L289.80-13.26Q290.10-13.26 290.31-13.05Q290.52-12.84 290.52-12.54L290.52-12.54L290.52-11.16Q290.52-9.72 291.21-8.88Q291.90-8.04 292.98-8.04L292.98-8.04Q294.06-8.04 294.75-8.85Q295.44-9.66 295.44-10.92L295.44-10.92Q295.44-12.30 294.36-13.41Q293.28-14.52 290.04-16.86L290.04-16.86Q287.04-19.02 285.12-20.73Q283.20-22.44 281.82-24.99Q280.44-27.54 280.44-30.90L280.44-30.90Q280.44-34.32 281.97-36.96Q283.50-39.60 286.29-41.04Q289.08-42.48 292.68-42.48L292.68-42.48Q296.34-42.48 299.13-41.01Q301.92-39.54 303.45-36.87Q304.98-34.20 304.98-30.72L304.98-30.72L304.98-29.28Q304.98-28.98 304.77-28.77Q304.56-28.56 304.26-28.56L304.26-28.56L295.92-28.56Q295.62-28.56 295.41-28.77Q295.20-28.98 295.20-29.28L295.20-29.28L295.20-30.96Q295.20-32.28 294.48-33.12Q293.76-33.96 292.68-33.96L292.68-33.96Q291.60-33.96 290.94-33.12Q290.28-32.28 290.28-30.90L290.28-30.90Q290.28-29.40 291.30-28.20Q292.32-27 295.44-24.72L295.44-24.72Q299.22-21.90 301.14-20.16Q303.06-18.42 304.14-16.29Q305.22-14.16 305.22-11.28L305.22-11.28Q305.22-5.88 301.83-2.70Q298.44 0.48 292.92 0.48L292.92 0.48Z" fill="#1A2B40"/><line x1="149.67996215820312" y1="246" x2="229.67996215820312" y2="246" stroke="#1A2B40" stroke-width="2"></line><path transform="translate(118.294, 277.000)" d="M5.48-14.70Q6.70-14.70 7.63-14.12Q8.57-13.55 9.09-12.50Q9.62-11.45 9.62-10.10L9.62-10.10Q9.62-8.78 9.12-7.78Q8.63-6.78 7.73-6.24Q6.83-5.69 5.65-5.69L5.65-5.69L4.28-5.69Q4.18-5.69 4.18-5.59L4.18-5.59L4.18-0.25Q4.18-0.15 4.11-0.07Q4.03 0 3.93 0L3.93 0L0.95 0Q0.84 0 0.77-0.07Q0.69-0.15 0.69-0.25L0.69-0.25L0.69-14.45Q0.69-14.55 0.77-14.63Q0.84-14.70 0.95-14.70L0.95-14.70L5.48-14.70ZM4.87-8.38Q5.44-8.38 5.79-8.81Q6.13-9.24 6.13-10.02L6.13-10.02Q6.13-10.84 5.79-11.28Q5.44-11.72 4.87-11.72L4.87-11.72L4.28-11.72Q4.18-11.72 4.18-11.61L4.18-11.61L4.18-8.48Q4.18-8.38 4.28-8.38L4.28-8.38L4.87-8.38ZM24.42 0Q24.19 0 24.13-0.21L24.13-0.21L22.70-5.78Q22.68-5.86 22.59-5.86L22.59-5.86L22.28-5.86Q22.18-5.86 22.18-5.75L22.18-5.75L22.18-0.25Q22.18-0.15 22.10-0.07Q22.03 0 21.92 0L21.92 0L18.94 0Q18.84 0 18.76-0.07Q18.69-0.15 18.69-0.25L18.69-0.25L18.69-14.45Q18.69-14.55 18.76-14.63Q18.84-14.70 18.94-14.70L18.94-14.70L23.46-14.70Q24.67-14.70 25.62-14.12Q26.56-13.55 27.08-12.51Q27.59-11.47 27.59-10.14L27.59-10.14Q27.59-8.97 27.16-8.03Q26.73-7.10 25.96-6.53L25.96-6.53Q25.91-6.51 25.89-6.48Q25.87-6.45 25.89-6.41L25.89-6.41L27.70-0.29L27.72-0.21Q27.72 0 27.49 0L27.49 0L24.42 0ZM22.28-11.72Q22.18-11.72 22.18-11.61L22.18-11.61L22.18-8.63Q22.18-8.53 22.28-8.53L22.28-8.53L22.87-8.53Q23.44-8.53 23.77-8.95Q24.11-9.37 24.11-10.10L24.11-10.10Q24.11-10.88 23.77-11.30Q23.44-11.72 22.87-11.72L22.87-11.72L22.28-11.72ZM44.85-11.97Q44.85-11.87 44.78-11.79Q44.71-11.72 44.60-11.72L44.60-11.72L40.38-11.72Q40.28-11.72 40.28-11.61L40.28-11.61L40.28-8.97Q40.28-8.86 40.38-8.86L40.38-8.86L42.69-8.86Q42.80-8.86 42.87-8.79Q42.94-8.71 42.94-8.61L42.94-8.61L42.94-6.11Q42.94-6.01 42.87-5.93Q42.80-5.86 42.69-5.86L42.69-5.86L40.38-5.86Q40.28-5.86 40.28-5.75L40.28-5.75L40.28-3.09Q40.28-2.98 40.38-2.98L40.38-2.98L44.60-2.98Q44.71-2.98 44.78-2.91Q44.85-2.83 44.85-2.73L44.85-2.73L44.85-0.25Q44.85-0.15 44.78-0.07Q44.71 0 44.60 0L44.60 0L37.04 0Q36.94 0 36.86-0.07Q36.79-0.15 36.79-0.25L36.79-0.25L36.79-14.45Q36.79-14.55 36.86-14.63Q36.94-14.70 37.04-14.70L37.04-14.70L44.60-14.70Q44.71-14.70 44.78-14.63Q44.85-14.55 44.85-14.45L44.85-14.45L44.85-11.97ZM58.15 0.17Q56.87 0.17 55.90-0.33Q54.93-0.82 54.40-1.71Q53.86-2.60 53.86-3.74L53.86-3.74L53.86-4.39Q53.86-4.49 53.94-4.57Q54.01-4.64 54.11-4.64L54.11-4.64L57.05-4.64Q57.16-4.64 57.23-4.57Q57.31-4.49 57.31-4.39L57.31-4.39L57.31-3.91Q57.31-3.40 57.55-3.11Q57.79-2.81 58.17-2.81L58.17-2.81Q58.55-2.81 58.79-3.10Q59.03-3.38 59.03-3.82L59.03-3.82Q59.03-4.31 58.65-4.69Q58.27-5.08 57.14-5.90L57.14-5.90Q56.09-6.66 55.42-7.26Q54.74-7.85 54.26-8.75Q53.78-9.64 53.78-10.82L53.78-10.82Q53.78-12.01 54.31-12.94Q54.85-13.86 55.83-14.36Q56.80-14.87 58.06-14.87L58.06-14.87Q59.34-14.87 60.32-14.35Q61.30-13.84 61.83-12.90Q62.37-11.97 62.37-10.75L62.37-10.75L62.37-10.25Q62.37-10.14 62.29-10.07Q62.22-10.00 62.12-10.00L62.12-10.00L59.20-10.00Q59.09-10.00 59.02-10.07Q58.94-10.14 58.94-10.25L58.94-10.25L58.94-10.84Q58.94-11.30 58.69-11.59Q58.44-11.89 58.06-11.89L58.06-11.89Q57.68-11.89 57.45-11.59Q57.22-11.30 57.22-10.82L57.22-10.82Q57.22-10.29 57.58-9.87Q57.94-9.45 59.03-8.65L59.03-8.65Q60.35-7.67 61.02-7.06Q61.70-6.45 62.07-5.70Q62.45-4.96 62.45-3.95L62.45-3.95Q62.45-2.06 61.26-0.95Q60.08 0.17 58.15 0.17L58.15 0.17ZM79.63-11.97Q79.63-11.87 79.55-11.79Q79.48-11.72 79.38-11.72L79.38-11.72L75.16-11.72Q75.05-11.72 75.05-11.61L75.05-11.61L75.05-8.97Q75.05-8.86 75.16-8.86L75.16-8.86L77.47-8.86Q77.57-8.86 77.64-8.79Q77.72-8.71 77.72-8.61L77.72-8.61L77.72-6.11Q77.72-6.01 77.64-5.93Q77.57-5.86 77.47-5.86L77.47-5.86L75.16-5.86Q75.05-5.86 75.05-5.75L75.05-5.75L75.05-3.09Q75.05-2.98 75.16-2.98L75.16-2.98L79.38-2.98Q79.48-2.98 79.55-2.91Q79.63-2.83 79.63-2.73L79.63-2.73L79.63-0.25Q79.63-0.15 79.55-0.07Q79.48 0 79.38 0L79.38 0L71.82 0Q71.71 0 71.64-0.07Q71.56-0.15 71.56-0.25L71.56-0.25L71.56-14.45Q71.56-14.55 71.64-14.63Q71.71-14.70 71.82-14.70L71.82-14.70L79.38-14.70Q79.48-14.70 79.55-14.63Q79.63-14.55 79.63-14.45L79.63-14.45L79.63-11.97ZM94.87-14.45Q94.87-14.55 94.95-14.63Q95.02-14.70 95.13-14.70L95.13-14.70L98.06-14.70Q98.17-14.70 98.24-14.63Q98.32-14.55 98.32-14.45L98.32-14.45L98.32-0.25Q98.32-0.15 98.24-0.07Q98.17 0 98.06 0L98.06 0L94.73 0Q94.50 0 94.43-0.21L94.43-0.21L92.35-7.52Q92.33-7.58 92.28-7.59Q92.23-7.60 92.23-7.52L92.23-7.52L92.27-0.25Q92.27-0.15 92.20-0.07Q92.12 0 92.02 0L92.02 0L89.08 0Q88.97 0 88.90-0.07Q88.83-0.15 88.83-0.25L88.83-0.25L88.83-14.45Q88.83-14.55 88.90-14.63Q88.97-14.70 89.08-14.70L89.08-14.70L92.37-14.70Q92.61-14.70 92.67-14.49L92.67-14.49L94.77-7.14Q94.79-7.08 94.84-7.08Q94.89-7.08 94.89-7.16L94.89-7.16L94.87-14.45ZM116.54-14.70Q116.65-14.70 116.72-14.63Q116.80-14.55 116.80-14.45L116.80-14.45L116.80-11.97Q116.80-11.87 116.72-11.79Q116.65-11.72 116.54-11.72L116.54-11.72L113.94-11.72Q113.84-11.72 113.84-11.61L113.84-11.61L113.84-0.25Q113.84-0.15 113.76-0.07Q113.69 0 113.58 0L113.58 0L110.60 0Q110.50 0 110.42-0.07Q110.35-0.15 110.35-0.25L110.35-0.25L110.35-11.61Q110.35-11.72 110.24-11.72L110.24-11.72L107.75-11.72Q107.64-11.72 107.57-11.79Q107.49-11.87 107.49-11.97L107.49-11.97L107.49-14.45Q107.49-14.55 107.57-14.63Q107.64-14.70 107.75-14.70L107.75-14.70L116.54-14.70ZM130.07 0.17Q128.79 0.17 127.82-0.33Q126.85-0.82 126.32-1.71Q125.78-2.60 125.78-3.74L125.78-3.74L125.78-4.39Q125.78-4.49 125.86-4.57Q125.93-4.64 126.04-4.64L126.04-4.64L128.98-4.64Q129.08-4.64 129.15-4.57Q129.23-4.49 129.23-4.39L129.23-4.39L129.23-3.91Q129.23-3.40 129.47-3.11Q129.71-2.81 130.09-2.81L130.09-2.81Q130.47-2.81 130.71-3.10Q130.95-3.38 130.95-3.82L130.95-3.82Q130.95-4.31 130.57-4.69Q130.19-5.08 129.06-5.90L129.06-5.90Q128.01-6.66 127.34-7.26Q126.67-7.85 126.18-8.75Q125.70-9.64 125.70-10.82L125.70-10.82Q125.70-12.01 126.23-12.94Q126.77-13.86 127.75-14.36Q128.72-14.87 129.98-14.87L129.98-14.87Q131.26-14.87 132.24-14.35Q133.22-13.84 133.75-12.90Q134.29-11.97 134.29-10.75L134.29-10.75L134.29-10.25Q134.29-10.14 134.21-10.07Q134.14-10.00 134.04-10.00L134.04-10.00L131.12-10.00Q131.01-10.00 130.94-10.07Q130.87-10.14 130.87-10.25L130.87-10.25L130.87-10.84Q130.87-11.30 130.61-11.59Q130.36-11.89 129.98-11.89L129.98-11.89Q129.61-11.89 129.37-11.59Q129.14-11.30 129.14-10.82L129.14-10.82Q129.14-10.29 129.50-9.87Q129.86-9.45 130.95-8.65L130.95-8.65Q132.27-7.67 132.94-7.06Q133.62-6.45 133.99-5.70Q134.37-4.96 134.37-3.95L134.37-3.95Q134.37-2.06 133.19-0.95Q132.00 0.17 130.07 0.17L130.07 0.17Z" fill="#1A2B40"/></svg>